<svg width="20" height="32" viewBox="0 0 20 32" fill="none" xmlns="http://www.w3.org/2000/svg">
<path d="M10.0195 2.60713C12.861 6.13431 14.3779 10.4839 14.3229 14.9471V16.0125L15.2604 16.5703C16.4717 17.2873 17.3751 18.3994 17.806 19.7039C17.4277 19.4316 17.0319 19.1825 16.6211 18.9581L14.1211 17.5856L13.6719 20.3557C13.6329 20.6004 13.5808 20.8431 13.5156 21.0826H6.51039C6.40623 20.7693 6.32159 20.4559 6.24347 20.13L5.67706 17.6232L3.37237 18.8766C2.98734 19.0871 2.6156 19.3194 2.25909 19.5723C2.69833 18.2828 3.58287 17.177 4.7656 16.4387L5.65753 15.8809V14.8907C5.67362 10.4456 7.20873 6.12909 10.026 2.60713H10.0195ZM10.026 0C9.87991 0.000346939 9.73886 0.0515428 9.62888 0.144144L9.57029 0.194281C5.8161 4.23612 3.73144 9.4626 3.71091 14.8844C2.11781 15.8794 0.938575 17.3816 0.379264 19.1286C-0.180047 20.8756 -0.0838592 22.7562 0.651019 24.4418C1.42517 22.796 2.7193 21.4274 4.34894 20.5311C4.51237 21.2126 4.73003 21.881 4.99998 22.5304C5.03421 22.6552 5.1101 22.7657 5.21596 22.845C5.32183 22.9242 5.45181 22.9678 5.58591 22.9691H14.6224C14.8047 22.9691 14.987 22.7998 15.0781 22.5366C15.3416 21.9193 15.5252 21.2731 15.625 20.6126C17.2577 21.5051 18.5529 22.8748 19.3229 24.5233C20.1021 22.846 20.2228 20.9535 19.6624 19.197C19.1021 17.4406 17.8989 15.9394 16.276 14.9722C16.3404 9.51836 14.2668 4.24159 10.4687 0.194281C10.4122 0.133409 10.343 0.0846575 10.2656 0.0511885C10.1882 0.0177195 10.1043 0.000279777 10.0195 0L10.026 0Z" fill="#4EA8DE"/>
<path d="M10.0195 14.3643C9.51948 14.3643 9.03062 14.2217 8.61458 13.9547C8.19854 13.6876 7.87394 13.308 7.68169 12.8636C7.48945 12.4192 7.43817 11.93 7.53431 11.4576C7.63046 10.9852 7.86973 10.5508 8.22196 10.2091C8.5742 9.86744 9.02363 9.63378 9.5136 9.5376C10.0036 9.44142 10.5122 9.48703 10.9752 9.66867C11.4383 9.85031 11.8352 10.1599 12.1158 10.5583C12.3964 10.9567 12.5482 11.4262 12.5521 11.9076V11.9076C12.5599 12.2195 12.5037 12.5299 12.3869 12.8209C12.27 13.112 12.0947 13.378 11.871 13.6038C11.6473 13.8296 11.3796 14.0108 11.0831 14.137C10.7867 14.2632 10.4673 14.3319 10.1432 14.3392C10.1023 14.3455 10.0605 14.3455 10.0195 14.3392V14.3643Z" fill="#4EA8DE"/>
<path d="M13.5416 24.5296C13.3787 24.5246 13.2164 24.5509 13.0642 24.6071C12.912 24.6633 12.773 24.7481 12.6554 24.8567C12.5378 24.9653 12.4438 25.0954 12.3791 25.2394C12.3144 25.3834 12.2802 25.5384 12.2786 25.6953V29.3929C12.2786 29.7153 12.4116 30.0246 12.6485 30.2526C12.8854 30.4806 13.2066 30.6087 13.5416 30.6087C13.8766 30.6087 14.1978 30.4806 14.4347 30.2526C14.6715 30.0246 14.8046 29.7153 14.8046 29.3929V25.7454C14.8098 25.5891 14.7826 25.4334 14.7247 25.2873C14.6667 25.1412 14.5792 25.0077 14.467 24.8945C14.3549 24.7814 14.2206 24.6908 14.0717 24.6282C13.9229 24.5655 13.7626 24.532 13.6002 24.5296H13.5416Z" fill="#5E60CE"/>
<path d="M6.51034 24.5296C6.34467 24.5211 6.17893 24.5449 6.02299 24.5993C5.86704 24.6538 5.72408 24.738 5.60259 24.8467C5.48111 24.9555 5.3836 25.0866 5.31585 25.2324C5.24811 25.3782 5.21151 25.5356 5.20825 25.6953V29.3929C5.20825 29.7153 5.34132 30.0246 5.57818 30.2526C5.81504 30.4806 6.1363 30.6087 6.47127 30.6087C6.80625 30.6087 7.1275 30.4806 7.36436 30.2526C7.60123 30.0246 7.73429 29.7153 7.73429 29.3929V25.7454C7.7395 25.5891 7.71233 25.4334 7.65438 25.2873C7.59642 25.1412 7.50884 25.0077 7.39674 24.8945C7.28463 24.7814 7.15025 24.6908 7.00142 24.6282C6.85259 24.5655 6.69229 24.532 6.52987 24.5296H6.51034Z" fill="#5E60CE"/>
<path d="M9.9283 24.5296C9.76585 24.5262 9.60431 24.5538 9.45291 24.6106C9.30151 24.6673 9.16321 24.7523 9.04592 24.8605C8.92863 24.9688 8.83465 25.0982 8.76934 25.2414C8.70402 25.3847 8.66867 25.5389 8.66528 25.6953V30.7904C8.66528 31.1129 8.79835 31.4221 9.03521 31.6502C9.27208 31.8782 9.59333 32.0063 9.9283 32.0063C10.2633 32.0063 10.5845 31.8782 10.8214 31.6502C11.0583 31.4221 11.1913 31.1129 11.1913 30.7904V25.7767C11.1965 25.6204 11.1694 25.4647 11.1114 25.3186C11.0535 25.1726 10.9659 25.039 10.8538 24.9259C10.7417 24.8127 10.6073 24.7222 10.4584 24.6595C10.3096 24.5968 10.1493 24.5633 9.9869 24.5609L9.9283 24.5296Z" fill="#5E60CE"/>
</svg>
