<svg width="111" height="32" viewBox="0 0 111 32" fill="none" xmlns="http://www.w3.org/2000/svg">
<path d="M43.3981 9.44836V14.4861H30.6665V9.44836H43.3981ZM33.1323 4.8136H40.0768V22.5718C40.0768 22.8405 40.123 23.0672 40.2152 23.2519C40.3075 23.4282 40.4501 23.5625 40.643 23.6549C40.8359 23.7389 41.0833 23.7809 41.3852 23.7809C41.5949 23.7809 41.8381 23.7557 42.1149 23.7053C42.4001 23.6549 42.6097 23.6129 42.7439 23.5793L43.7504 28.466C43.4401 28.5583 42.9955 28.6717 42.4168 28.806C41.8465 28.9404 41.1671 29.0285 40.3788 29.0705C38.7852 29.1545 37.4475 28.9908 36.3655 28.5793C35.2836 28.1595 34.4701 27.5004 33.9249 26.602C33.3797 25.7036 33.1155 24.5785 33.1323 23.2267V4.8136Z" fill="#4EA8DE"/>
<path d="M55.334 29.1461C53.2372 29.1461 51.4424 28.7305 49.9495 27.8992C48.4566 27.0596 47.3117 25.8925 46.515 24.398C45.7182 22.895 45.3198 21.1528 45.3198 19.1713C45.3198 17.1898 45.7182 15.4517 46.515 13.9572C47.3117 12.4542 48.4566 11.2871 49.9495 10.4559C51.4424 9.61629 53.2372 9.19647 55.334 9.19647C57.4308 9.19647 59.2256 9.61629 60.7185 10.4559C62.2114 11.2871 63.3563 12.4542 64.153 13.9572C64.9498 15.4517 65.3482 17.1898 65.3482 19.1713C65.3482 21.1528 64.9498 22.895 64.153 24.398C63.3563 25.8925 62.2114 27.0596 60.7185 27.8992C59.2256 28.7305 57.4308 29.1461 55.334 29.1461ZM55.3843 24.0076C55.9714 24.0076 56.4788 23.8102 56.9066 23.4156C57.3343 23.021 57.6656 22.4584 57.9005 21.728C58.1353 20.9975 58.2527 20.1285 58.2527 19.1209C58.2527 18.105 58.1353 17.2359 57.9005 16.5139C57.6656 15.7834 57.3343 15.2208 56.9066 14.8262C56.4788 14.4316 55.9714 14.2343 55.3843 14.2343C54.7637 14.2343 54.2311 14.4316 53.7866 14.8262C53.3421 15.2208 53.0024 15.7834 52.7675 16.5139C52.5327 17.2359 52.4153 18.105 52.4153 19.1209C52.4153 20.1285 52.5327 20.9975 52.7675 21.728C53.0024 22.4584 53.3421 23.021 53.7866 23.4156C54.2311 23.8102 54.7637 24.0076 55.3843 24.0076Z" fill="#4EA8DE"/>
<path d="M75.182 29.0453C73.8065 29.0453 72.54 28.6843 71.3826 27.9622C70.2336 27.2401 69.311 26.1444 68.6149 24.6751C67.9271 23.2057 67.5833 21.3543 67.5833 19.1209C67.5833 16.7867 67.9439 14.8892 68.6652 13.4282C69.3949 11.9673 70.3342 10.8967 71.4833 10.2166C72.6407 9.53652 73.8568 9.19647 75.1316 9.19647C76.0878 9.19647 76.9265 9.3644 77.6478 9.70025C78.3691 10.0277 78.9729 10.4685 79.4594 11.0227C79.9458 11.5684 80.3149 12.1688 80.5665 12.8237H80.6671V3H87.6116V28.7934H80.7174V25.6196H80.5665C80.2981 26.2746 79.9123 26.8623 79.4091 27.3829C78.9142 27.895 78.3103 28.3023 77.5974 28.6045C76.8929 28.8984 76.0878 29.0453 75.182 29.0453ZM77.7484 23.7053C78.3858 23.7053 78.931 23.5206 79.3839 23.1511C79.8452 22.7733 80.1974 22.2443 80.4407 21.5642C80.6923 20.8757 80.8181 20.0613 80.8181 19.1209C80.8181 18.1637 80.6923 17.3451 80.4407 16.665C80.1974 15.9765 79.8452 15.4517 79.3839 15.0907C78.931 14.7212 78.3858 14.5365 77.7484 14.5365C77.111 14.5365 76.5658 14.7212 76.1129 15.0907C75.6684 15.4517 75.3245 15.9765 75.0813 16.665C74.8465 17.3451 74.7291 18.1637 74.7291 19.1209C74.7291 20.0781 74.8465 20.9009 75.0813 21.5894C75.3245 22.2695 75.6684 22.7943 76.1129 23.1637C76.5658 23.5248 77.111 23.7053 77.7484 23.7053Z" fill="#5E60CE"/>
<path d="M100.331 29.1461C98.2339 29.1461 96.4391 28.7305 94.9462 27.8992C93.4533 27.0596 92.3084 25.8925 91.5116 24.398C90.7149 22.895 90.3165 21.1528 90.3165 19.1713C90.3165 17.1898 90.7149 15.4517 91.5116 13.9572C92.3084 12.4542 93.4533 11.2872 94.9462 10.4559C96.4391 9.61629 98.2339 9.19647 100.331 9.19647C102.427 9.19647 104.222 9.61629 105.715 10.4559C107.208 11.2872 108.353 12.4542 109.15 13.9572C109.946 15.4517 110.345 17.1898 110.345 19.1713C110.345 21.1528 109.946 22.895 109.15 24.398C108.353 25.8925 107.208 27.0596 105.715 27.8992C104.222 28.7305 102.427 29.1461 100.331 29.1461ZM100.381 24.0076C100.968 24.0076 101.476 23.8102 101.903 23.4156C102.331 23.021 102.662 22.4584 102.897 21.728C103.132 20.9975 103.249 20.1285 103.249 19.1209C103.249 18.105 103.132 17.2359 102.897 16.5139C102.662 15.7834 102.331 15.2208 101.903 14.8262C101.476 14.4316 100.968 14.2343 100.381 14.2343C99.7603 14.2343 99.2278 14.4316 98.7832 14.8262C98.3387 15.2208 97.9991 15.7834 97.7642 16.5139C97.5294 17.2359 97.412 18.105 97.412 19.1209C97.412 20.1285 97.5294 20.9975 97.7642 21.728C97.9991 22.4584 98.3387 23.021 98.7832 23.4156C99.2278 23.8102 99.7603 24.0076 100.381 24.0076Z" fill="#5E60CE"/>
<g clip-path="url(#clip0_1708_3517)">
<path d="M9.76148 2.68117C12.5298 6.19947 14.0076 10.5381 13.954 14.9901V16.0528L14.8674 16.6092C16.0475 17.3244 16.9276 18.4336 17.3474 19.7349C16.9789 19.4632 16.5933 19.2148 16.193 18.9909L13.7574 17.6219L13.3198 20.385C13.2818 20.6292 13.231 20.8712 13.1675 21.1102H6.34275C6.24126 20.7976 6.15881 20.485 6.08269 20.1599L5.53088 17.6594L3.28554 18.9097C2.91043 19.1197 2.54826 19.3514 2.20094 19.6036C2.62887 18.3174 3.49062 17.2144 4.64289 16.4779L5.51185 15.9215V14.9338C5.52752 10.4999 7.02309 6.19427 9.76783 2.68117H9.76148ZM9.76783 0.0806122C9.62548 0.0809582 9.48806 0.132025 9.38092 0.224393L9.32383 0.274404C5.66633 4.30606 3.63537 9.51938 3.61537 14.9276C2.0633 15.92 0.914429 17.4185 0.369523 19.161C-0.175383 20.9036 -0.0816721 22.7795 0.63428 24.4609C1.3885 22.8192 2.6493 21.454 4.23696 20.56C4.39618 21.2398 4.60823 21.9065 4.87123 22.5542C4.90458 22.6787 4.97851 22.789 5.08165 22.8681C5.18479 22.9471 5.31142 22.9906 5.44208 22.9918H14.2458C14.4234 22.9918 14.601 22.823 14.6898 22.5605C14.9465 21.9447 15.1254 21.3001 15.2226 20.6413C16.8133 21.5316 18.0751 22.8978 18.8253 24.5421C19.5844 22.869 19.7019 20.9813 19.1561 19.2293C18.6102 17.4773 17.4379 15.9799 15.8569 15.0151C15.9196 9.575 13.8994 4.31152 10.1991 0.274404C10.144 0.213685 10.0766 0.165056 10.0012 0.131672C9.92581 0.098287 9.84414 0.0808913 9.76148 0.0806122L9.76783 0.0806122Z" fill="#4EA8DE"/>
<path d="M9.76144 14.4087C9.27427 14.4087 8.798 14.2665 8.39267 14.0001C7.98734 13.7338 7.6711 13.3551 7.48381 12.9118C7.29652 12.4685 7.24656 11.9806 7.34023 11.5094C7.4339 11.0382 7.667 10.6048 8.01016 10.264C8.35333 9.92319 8.79118 9.69012 9.26853 9.59419C9.74589 9.49825 10.2414 9.54374 10.6925 9.72492C11.1437 9.9061 11.5303 10.2149 11.8037 10.6123C12.0771 11.0097 12.225 11.478 12.2288 11.9582V11.9582C12.2364 12.2693 12.1817 12.5789 12.0678 12.8692C11.954 13.1595 11.7832 13.4249 11.5653 13.6502C11.3473 13.8754 11.0865 14.0561 10.7977 14.182C10.5088 14.3079 10.1977 14.3764 9.88196 14.3837C9.84204 14.39 9.80136 14.39 9.76144 14.3837V14.4087Z" fill="#4EA8DE"/>
<path d="M13.1929 24.5484C13.0342 24.5434 12.8761 24.5697 12.7278 24.6257C12.5796 24.6817 12.4441 24.7664 12.3295 24.8747C12.2149 24.983 12.1234 25.1128 12.0604 25.2564C11.9973 25.4001 11.964 25.5547 11.9624 25.7111V29.3994C11.9624 29.7211 12.092 30.0296 12.3228 30.257C12.5536 30.4844 12.8665 30.6122 13.1929 30.6122C13.5192 30.6122 13.8322 30.4844 14.063 30.257C14.2937 30.0296 14.4234 29.7211 14.4234 29.3994V25.7612C14.4285 25.6053 14.402 25.4499 14.3455 25.3042C14.2891 25.1585 14.2037 25.0253 14.0945 24.9124C13.9853 24.7996 13.8544 24.7092 13.7094 24.6467C13.5644 24.5842 13.4082 24.5508 13.25 24.5484H13.1929Z" fill="#5E60CE"/>
<path d="M6.34277 24.5484C6.18137 24.54 6.0199 24.5637 5.86797 24.618C5.71604 24.6723 5.57676 24.7563 5.4584 24.8647C5.34005 24.9732 5.24505 25.1041 5.17905 25.2495C5.11305 25.3949 5.0774 25.5519 5.07422 25.7111V29.3994C5.07422 29.7211 5.20386 30.0296 5.43462 30.257C5.66538 30.4844 5.97836 30.6122 6.30471 30.6122C6.63106 30.6122 6.94404 30.4844 7.1748 30.257C7.40556 30.0296 7.5352 29.7211 7.5352 29.3994V25.7612C7.54027 25.6053 7.5138 25.4499 7.45734 25.3042C7.40088 25.1585 7.31555 25.0253 7.20634 24.9124C7.09712 24.7996 6.9662 24.7092 6.8212 24.6467C6.6762 24.5842 6.52003 24.5508 6.3618 24.5484H6.34277Z" fill="#5E60CE"/>
<path d="M9.67263 24.5484C9.51436 24.5451 9.35698 24.5725 9.20948 24.6292C9.06198 24.6858 8.92724 24.7705 8.81297 24.8785C8.6987 24.9865 8.60714 25.1156 8.54351 25.2585C8.47988 25.4013 8.44544 25.5552 8.44214 25.7111V30.7935C8.44214 31.1151 8.57178 31.4236 8.80254 31.651C9.0333 31.8785 9.34628 32.0063 9.67263 32.0063C9.99898 32.0063 10.312 31.8785 10.5427 31.651C10.7735 31.4236 10.9031 31.1151 10.9031 30.7935V25.7924C10.9082 25.6365 10.8817 25.4812 10.8253 25.3355C10.7688 25.1898 10.6835 25.0566 10.5743 24.9437C10.465 24.8308 10.3341 24.7405 10.1891 24.678C10.0441 24.6155 9.88795 24.5821 9.72971 24.5797L9.67263 24.5484Z" fill="#5E60CE"/>
</g>
<defs>
<clipPath id="clip0_1708_3517">
<rect width="19.4849" height="31.9194" fill="white" transform="translate(0 0.0806122)"/>
</clipPath>
</defs>
</svg>
